<svg xmlns="http://www.w3.org/2000/svg" width="249" height="48" viewBox="0 0 249 48">
  <defs>
    <style>
      .cls-1 {
        fill: #444;
        fill-rule: evenodd;
      }
    </style>
  </defs>
  <path id="BI" class="cls-1" d="M2.691,14.42c0-8.265,7-11.248,14.764-11.248,1.292,0,3.752.153,5.048,0.309a2.213,2.213,0,0,1-2.427,1.961C16.183,5.269,7.24,4.647,7.24,12.485c0,3.719,3.123,6.346,5.531,7.869l5.191,3.23c4.1,2.489,8.13,6.211,8.13,12.279,0,7.041-5.4,11.86-13.849,11.86-5.46,0-9.609-2.435-11.087-4.806A6.106,6.106,0,0,1,2.663,34.64c1.04,5.253,4.5,11.093,10.429,11.093,5.457,0,8.123-3.523,8.123-7.37,0-2.823-.579-5.953-5.334-8.96l-6.169-3.97c-3.253-2.116-7.02-5.768-7.02-11.013M66.467,0.632c-2.311.642-5.211,3.421-5.211,8.16V46.814h4.8V14.849A136.674,136.674,0,0,1,66.467.632M49.225,38.363c0,5-4.152,6.073-6.623,6.073-4.43,0-5.978-1.965-5.978-6.384V20.193a7.338,7.338,0,0,0-4.82,6.7V39.585a7.626,7.626,0,0,0,7.989,7.936,15.618,15.618,0,0,0,9.174-3.263c0.643-.528,5.064-3.969,5.064-11.45V20.193a7.3,7.3,0,0,0-4.807,6.7V38.363Zm72.02-11.406a1.763,1.763,0,0,1,.175-0.884,5.558,5.558,0,0,1,.8-0.717,10.382,10.382,0,0,1,5.452-1.847c4.157,0,6.182,2.765,6.182,6.857V46.877l4.725,0.008,0.067-18.071c0-4.479-2.2-8.242-8.368-8.242-3.337,0-6.58,1.922-8.909,3.591-0.106.051-.119-0.189-0.119-0.372V11.012a97.3,97.3,0,0,1,.4-10.379A6.8,6.8,0,0,0,118.008,3.4a7.239,7.239,0,0,0-1.588,4.337v39.12h4.825v-19.9Zm69.3,7.433c0,8.007,5.849,13.2,13.315,13.2,8.135,0,13.72-5.757,13.72-13.775a12.874,12.874,0,0,0-13.195-13.245,13.55,13.55,0,0,0-13.84,13.819m5.593-.829c0-7.048,3.176-11.594,7.465-11.594,6.182,0,8.392,7.435,8.392,12.873,0,4.932-1.761,11.346-7.484,11.346-5.707,0-8.373-6.8-8.373-12.626m25.6,0.829c0,8.007,5.853,13.2,13.331,13.2,8.119,0,13.693-5.757,13.693-13.775a12.866,12.866,0,0,0-13.191-13.245,13.55,13.55,0,0,0-13.833,13.819m5.595-.829c0-7.048,3.186-11.594,7.462-11.594,6.175,0,8.393,7.435,8.393,12.873,0,4.932-1.771,11.346-7.487,11.346s-8.368-6.8-8.368-12.626m-56.152-5.706c0-6.212,5.455-7.343,10.239-7.343,0.676,0,2.751.146,3.386,0.181a2.015,2.015,0,0,1-2.01,1.858c-2.138,0-7.469-1.041-7.469,3.784,0,2.618,2.744,4.03,5.009,5.3,3.444,1.925,6.642,4.109,6.642,8.652,0,4.864-4.557,7.3-9.361,7.3-3.056,0-5.657-.812-6.819-2.523-1.33-1.973-.243-3.739.663-4.814,0.911,3.4,3.126,5.478,6.792,5.478,2.349,0,4.371-1.337,4.371-4.085,0-2.963-2.6-4.554-5.007-5.9-3.775-2.12-6.436-4.359-6.436-7.889M146.982,26.3h4.541s0.458-3.061,2.993-3.766c4.03-.885,5.064,3.188,5.064,6.442v2.666c-1.358.939-2.725,1.315-6.6,1.945-5.767.885-8.238,3.155-8.238,7.6,0,4.136,2.73,6.678,7.147,6.678a10.3,10.3,0,0,0,7.682-3.7v2.9h4.739V28.279c0-6.509-5.263-7.469-7.72-7.469-2.918,0-7.976,1.138-9.609,5.486m2.011,14.388a4.789,4.789,0,0,1,2.63-4.734c0.792-.373,1.525-0.6,5.634-1.594,1.832-.411,2.1-0.467,2.323-0.522v4.708c0,3.543-2.133,7.024-5.9,7.024a4.63,4.63,0,0,1-4.688-4.882M110.977,21.441c-1.2-.219-3.517.267-5.063,4.189L100.3,39.774,93.838,21.337H90.511L84.38,39.829,76.987,21.441l-5.2.026L82.258,47.2h1.374L91.14,26.9l7.3,20.3h1.541l7.473-18.341c1.328-3.26,2.665-6.333,3.528-7.421"/>
</svg>
